PathFileType	4	(X/Y/Z)	D:\Share\Shared_Data\Ergonomics\Sit To Stand Pertubation\S3\Unperturbed.trc
DataRate	CameraRate	NumFrames	NumMarkers	Units	OrigDataRate	OrigDataStartFrame	OrigNumFrames	
100	100	6	18	m	100	1441	191
Frame#	Time	R_Thigh			R_ASIS			R_Pelvis			V_Sacral			L_Pelvis			L_ASIS			Clavical			R_Acromium			L_Acromium			Sternum			Torso			R_Thigh_Med			R_Thigh_Lat			R_Shank_Med			R_Shank_Lat			R_Shank			R_Heel			R_Toe			
		X1	Y1	Z1	X2	Y2	Z2	X3	Y3	Z3	X4	Y4	Z4	X5	Y5	Z5	X6	Y6	Z6	X7	Y7	Z7	X8	Y8	Z8	X9	Y9	Z9	X10	Y10	Z10	X11	Y11	Z11	X12	Y12	Z12	X13	Y13	Z13	X14	Y14	Z14	X15	Y15	Z15	X16	Y16	Z16	X17	Y17	Z17	X18	Y18	Z18	

1441	14.4	0.16678511	0.57889661	0.1122205	-0.0091103392	0.65001282	0.13431644	-0.11739124	0.62381207	0.18559042	-0.22214919	0.61486121	-0.0010722555	-0.111344	0.64716626	-0.20682277	-0.0059358449	0.65614532	-0.14226733	-0.069994286	1.0355823	-0.0098872662	-0.12633421	1.0934674	0.16310971	-0.11196346	1.0886262	-0.16436687	-0.040424648	0.96430432	-0.00067416149	-0.06262859	1.0232551	-0.070498566	0.35318774	0.46561636	0.08534053	0.33091559	0.44470566	0.20182779	0.25941272	0.10827718	0.094302673	0.23624393	0.099217796	0.17363979	0.26619159	0.27115988	0.20177251	0.18023827	0.051576187	0.12113268	0.39818631	0.055196018	0.13610297
1442	14.41	0.1668045	0.57890283	0.11220758	-0.0090128803	0.64996814	0.13434007	-0.11731996	0.62383331	0.18562097	-0.2220851	0.61497833	-0.0010444535	-0.11129056	0.64724994	-0.20681067	-0.0058695388	0.65615656	-0.14223824	-0.06961734	1.035583	-0.0097679281	-0.12596404	1.0934675	0.16322292	-0.11156063	1.0886503	-0.16427626	-0.040091255	0.96427435	-0.00056491464	-0.062235764	1.0232894	-0.070378769	0.35319388	0.46562207	0.085286064	0.3309538	0.44470355	0.20179042	0.25941547	0.10827863	0.094300056	0.23624551	0.099222969	0.1736339	0.26620441	0.27116678	0.20175458	0.18023952	0.051574902	0.12113264	0.39817786	0.05521172	0.13607338
1443	14.42	0.16681999	0.57891028	0.11219406	-0.0089147768	0.64992786	0.13436568	-0.11724518	0.6238656	0.18565469	-0.22201929	0.61510852	-0.0010187647	-0.11123494	0.64734283	-0.20679837	-0.0058027167	0.6561734	-0.14220549	-0.069223648	1.0355861	-0.0096541777	-0.12557754	1.0934678	0.1633378	-0.11115134	1.0886815	-0.16418375	-0.039741188	0.96425275	-0.00046927664	-0.061831371	1.0233302	-0.070275627	0.35319455	0.46563031	0.085222145	0.33098709	0.44470581	0.2017448	0.25941885	0.10828086	0.094299057	0.23624779	0.099228195	0.1736293	0.26621405	0.27117734	0.20173422	0.18024004	0.051575943	0.12113514	0.39816043	0.055240269	0.13601106
1444	14.43	0.16683228	0.57891895	0.11217931	-0.0088146048	0.64989154	0.13439124	-0.11716474	0.62391077	0.18569121	-0.22195085	0.61525238	-0.00099386615	-0.11117889	0.64744281	-0.20678485	-0.0057337885	0.6561955	-0.14217152	-0.068807701	1.0355885	-0.0095497074	-0.12516454	1.0934691	0.16345128	-0.11072636	1.0887218	-0.1640891	-0.039371727	0.96423828	-0.00038850379	-0.061410721	1.0233776	-0.070189079	0.35318954	0.46564102	0.085147987	0.33101492	0.44471338	0.2016895	0.25942285	0.10828436	0.094299637	0.23625188	0.099234917	0.17362582	0.26622095	0.27119247	0.20171198	0.18024004	0.051580231	0.12113989	0.39813907	0.055274246	0.13593372
1445	14.44	0.166842	0.57892914	0.1121623	-0.0087113571	0.64985913	0.1344149	-0.11707722	0.62396979	0.1857303	-0.22187917	0.61541028	-0.00096842021	-0.11112401	0.64754749	-0.20676927	-0.005660255	0.65622217	-0.1421384	-0.068363792	1.0355885	-0.0094561911	-0.12471555	1.0934719	0.16355986	-0.11027496	1.0887703	-0.16399304	-0.038980148	0.96422736	-0.0003226943	-0.060967617	1.0234313	-0.070116386	0.35317834	0.46565442	0.08506221	0.33103668	0.44472702	0.20162228	0.25942755	0.10828973	0.094301735	0.23625839	0.099244453	0.17362361	0.26622614	0.27121313	0.20168793	0.18023965	0.05158876	0.12114665	0.39811957	0.05530555	0.13586246
1446	14.45	0.16684935	0.57894165	0.11214219	-0.0086045485	0.64983008	0.13443552	-0.1169819	0.62404279	0.18577211	-0.22180441	0.61558234	-0.00094133484	-0.11107144	0.64765479	-0.20675159	-0.0055793362	0.6562522	-0.14210744	-0.067885994	1.0355858	-0.0093725624	-0.1242218	1.0934746	0.16366081	-0.10978651	1.0888256	-0.16389873	-0.038563477	0.96421606	-0.00027049476	-0.060494675	1.0234918	-0.070052635	0.35316046	0.4656713	0.084963379	0.33105164	0.44474701	0.20154005	0.25943298	0.10829755	0.094305237	0.23626753	0.09925753	0.17362289	0.26623068	0.27124036	0.20166161	0.18023897	0.051602695	0.12115574	0.39810602	0.055327648	0.13581343
